<svg version="1.1" xmlns="http://www.w3.org/2000/svg" xmlns:xlink="http://www.w3.org/1999/xlink" viewBox="0 0 172 172"><g fill="none" fill-rule="nonzero" stroke="none" stroke-width="1" stroke-linecap="butt" stroke-linejoin="miter" stroke-miterlimit="10" stroke-dasharray="" stroke-dashoffset="0" font-family="none" font-weight="none" font-size="none" text-anchor="none" style="mix-blend-mode: normal"><path d="M0,172v-172h172v172z" fill="none"></path><g><path d="M116.96,125.56c-7.439,-2.78984 -12.36336,-4.57348 -15.32004,-5.6244c-0.49192,-0.17544 -0.9288,-0.32852 -1.31408,-0.4644c-1.37772,-0.48504 -2.28588,-1.7802 -2.28588,-3.24048v-5.21848c7.64024,-4.96908 13.76,-12.97396 13.76,-16.41224c0,-1.72 0,-6.88 0,-6.88c3.44,0 4.09532,-3.26456 5.16,-6.88c0.9804,-3.3282 1.72,-6.88 1.72,-8.6c0,-3.225 -5.60204,-4.3 -5.60204,-4.3h-0.20812c-0.05332,-3.01 -0.559,-17.04004 -4.93812,-25.8c0,0 -10.75,-3.44 -21.93,-3.44c-11.18,0 -21.93,3.44 -21.93,3.44c-4.39116,8.78404 -5.04304,22.84848 -5.14108,25.82408c-1.29688,0.16684 -5.61064,1.31236 -5.61064,4.27592c0,1.72 0.7396,5.2718 1.72,8.6c1.06468,3.61544 1.72,6.88 5.16,6.88c0,0 0,5.16 0,6.88c0,3.43828 6.11976,11.44316 13.76,16.41224v5.21848c0,1.46028 -0.90816,2.75544 -2.28588,3.24048c-0.38528,0.13588 -0.82216,0.29068 -1.31408,0.4644c-2.95668,1.05092 -7.88104,2.83456 -15.32004,5.6244c-13.76,5.16 -13.76,18.92 -13.76,18.92h89.44c0,0 0,-13.76 -13.76,-18.92z" fill="#ffe1cd"></path><path d="M130.72,144.48h-89.44c0,0 0,-13.76 13.76,-18.92c7.4304,-2.7864 12.3668,-4.5752 15.3252,-5.6244c0.4816,-0.172 0.9288,-0.3268 1.3072,-0.4644c1.1352,-0.3956 1.9608,-1.3588 2.2016,-2.494c2.5972,0.8428 6.622,1.7028 12.126,1.7028c5.5212,0 9.5288,-0.8428 12.126,-1.6856c0.258,1.1352 1.0664,2.0812 2.2016,2.4768c0.3784,0.1376 0.8256,0.2924 1.3072,0.4644c2.9584,1.0492 7.8948,2.838 15.3252,5.6244c13.76,5.16 13.76,18.92 13.76,18.92z" fill="#bebebe"></path><path d="M86,115.24c-3.62232,0 -7.78472,-1.462 -12.04,-4.22776l0.9374,-1.44136c3.9732,2.58344 7.81396,3.94912 11.1026,3.94912c3.28864,0 7.1294,-1.36568 11.1026,-3.94912l0.9374,1.44136c-4.25528,2.76576 -8.41768,4.22776 -12.04,4.22776z" fill="#1f212b"></path><path d="M132.44,144.48c0,0.946 -0.774,1.72 -1.72,1.72h-89.44c-0.946,0 -1.72,-0.774 -1.72,-1.72c0,-0.1548 0.172,-15.0156 14.878,-20.5368c7.74,-2.8896 12.6248,-4.6612 15.3596,-5.6244l1.29,-0.4644c0.5676,-0.2064 0.9804,-0.6708 1.1008,-1.2384c0.0344,-0.1548 0.0516,-0.2752 0.0516,-0.3784v-4.3172c-7.2928,-5.0052 -13.76,-13.0892 -13.76,-17.3204v-5.3836c-3.0616,-0.8772 -4.0076,-4.1452 -4.8504,-7.0692l-0.2408,-0.8256c-0.8256,-2.7864 -1.7888,-6.8456 -1.7888,-9.0816c0,-1.806 1.3416,-3.0788 3.1648,-3.9904c0.2408,-0.1204 0.4988,-0.2408 0.7568,-0.344c1.4792,-0.6364 3.182,-1.0492 4.6612,-1.3072c-0.2408,1.1696 -0.4472,2.3736 -0.5848,3.6464c-1.0492,0.258 -2.0124,0.5332 -2.752,0.86c-0.172,0.0688 -0.3268,0.1376 -0.4644,0.2064c-0.7568,0.3268 -1.2384,0.6708 -1.3416,0.946c0,1.4448 0.688,4.8676 1.6512,8.1012l0.2408,0.8428c1.0836,3.7152 1.634,4.7988 3.268,4.7988c0.946,0 1.72,0.774 1.72,1.72v6.88c0,2.5628 5.5728,10.148 12.986,14.964c0.4816,0.3268 0.774,0.86 0.774,1.4448v5.2288c0,0.3612 -0.0344,0.7224 -0.1204,1.1008c-0.3784,1.7372 -1.6512,3.182 -3.3196,3.7496l-1.29,0.4644c-2.7348,0.9632 -7.5852,2.7176 -15.308,5.6244c-9.7008,3.6292 -11.954,11.9712 -12.4872,15.5832h85.7076c-0.516,-3.612 -2.7176,-11.9196 -12.5044,-15.5832c-7.7228,-2.9068 -12.5732,-4.6612 -15.2908,-5.6244l-1.3244,-0.4644c-1.6512,-0.5676 -2.8896,-1.9608 -3.2852,-3.7152c-0.1032,-0.3956 -0.1376,-0.774 -0.1376,-1.1352v-5.2288c0,-0.5848 0.2924,-1.118 0.774,-1.4448c7.4132,-4.816 12.986,-12.4012 12.986,-14.964v-6.88c0,-0.946 0.774,-1.72 1.72,-1.72c1.634,0 2.1844,-1.0836 3.268,-4.7988l0.2408,-0.8428c0.9632,-3.2336 1.6512,-6.6564 1.6512,-8.1184c-0.1032,-0.2752 -0.5676,-0.602 -1.3244,-0.946c-0.1376,-0.0688 -0.2924,-0.1376 -0.4644,-0.2064c-0.7396,-0.2924 -1.7028,-0.5848 -2.7692,-0.86c-0.1376,-1.2728 -0.344,-2.4596 -0.5848,-3.6292c1.4792,0.258 3.182,0.6708 4.6612,1.3072c0.258,0.1032 0.516,0.2236 0.7568,0.344c1.8232,0.9116 3.1648,2.1844 3.1648,3.9904c0,2.236 -0.9632,6.2952 -1.7888,9.0816l-0.2408,0.8256c-0.8428,2.924 -1.7888,6.192 -4.8504,7.0692v5.3836c0,4.2312 -6.4672,12.3152 -13.76,17.3204v4.3172c0,0.1204 0.0172,0.258 0.0516,0.3956c0.1204,0.5676 0.5332,1.0148 1.0836,1.2212l1.3244,0.4644c2.7176,0.9632 7.6024,2.7348 15.3424,5.6244c14.706,5.5212 14.878,20.382 14.878,20.5368z" fill="#1f212b"></path><path d="M86,120.4c-5.92368,0 -10.16692,-0.96836 -12.68328,-1.7802c-0.45236,-0.1462 -0.70004,-0.62952 -0.55384,-1.08188c0.1462,-0.45236 0.63124,-0.70004 1.08188,-0.55384c2.39768,0.774 6.45516,1.69592 12.15524,1.69592c0.88924,0 1.72516,-0.02924 2.537,-0.0688c0.53492,-0.05332 0.87892,0.34056 0.90128,0.81528c0.0258,0.473 -0.34056,0.87892 -0.81528,0.90128c-0.83764,0.043 -1.70452,0.07224 -2.623,0.07224z" fill="#1f212b"></path><path d="M92.01828,120.03364c-0.42656,0 -0.79636,-0.3182 -0.8514,-0.75164c-0.0602,-0.47128 0.27348,-0.90128 0.74476,-0.9632c0.5934,-0.07568 1.14896,-0.16168 1.6856,-0.25112c0.4644,-0.0774 0.9116,0.23564 0.99072,0.7052c0.07912,0.46784 -0.23736,0.9116 -0.7052,0.99072c-0.55728,0.0946 -1.13692,0.18232 -1.7544,0.26144c-0.03612,0.00688 -0.07224,0.0086 -0.11008,0.0086z" fill="#1f212b"></path><path d="M87.78364,130.72c3.12352,-1.80428 4.23636,-4.3 4.23636,-4.3l-6.02,-6.88l-6.02,6.88c0,0 1.11284,2.49572 4.23636,4.3h-0.2236c-4.01276,4.386 -4.01276,12.9 -4.01276,12.9h12.04c0,0 0,-8.514 -4.01276,-12.9z" fill="#ff5c5c"></path><path d="M92.88,144.48h-13.76v-0.86c0,-0.3612 0.04816,-8.901 4.23808,-13.48136l0.25456,-0.27864l2.38736,1.505l2.38736,-1.505l0.25456,0.27864c4.18992,4.58036 4.23808,13.12016 4.23808,13.48136zM80.87096,142.76h10.25808c-0.1204,-2.15344 -0.7052,-7.83804 -3.51052,-11.18h-3.23532c-2.81048,3.34884 -3.39184,9.02828 -3.51224,11.18z" fill="#1f212b"></path><path d="M86,132.44c-0.10492,0 -0.20812,-0.01892 -0.30616,-0.05676c-4.79708,-1.82664 -6.43452,-5.46444 -6.5016,-5.61924c-0.13416,-0.30616 -0.07912,-0.66048 0.14104,-0.90988l6.02,-6.88c0.32508,-0.37324 0.96836,-0.37324 1.29344,0l6.02,6.88c0.22016,0.25112 0.2752,0.60544 0.14104,0.90988c-0.06708,0.1548 -1.70452,3.7926 -6.5016,5.61924c-0.09804,0.03784 -0.20124,0.05676 -0.30616,0.05676zM81.0206,126.53524c0.54868,0.89784 2.03992,2.90336 4.9794,4.1194c2.96356,-1.2212 4.43932,-3.21812 4.98112,-4.11768l-4.98112,-5.68976z" fill="#1f212b"></path><path d="M95.46,130.72c-0.2236,0 -0.44376,-0.08772 -0.60888,-0.25112l-3.44,-3.44c-0.3354,-0.3354 -0.3354,-0.88064 0,-1.21604c0.3354,-0.3354 0.88064,-0.3354 1.21604,0l3.0358,3.0358c7.68496,-3.24564 9.28456,-7.81224 9.30004,-7.85868c0.15308,-0.45064 0.63984,-0.69144 1.08876,-0.54352c0.45064,0.15136 0.69316,0.63812 0.54352,1.08876c-0.07568,0.22704 -1.94876,5.57796 -10.81708,9.12632c-0.10148,0.03784 -0.21156,0.05848 -0.3182,0.05848z" fill="#1f212b"></path><path d="M76.54,130.72c-0.10836,0 -0.21672,-0.02064 -0.31992,-0.06192c-8.86832,-3.54836 -10.7414,-8.89928 -10.81708,-9.12632c-0.14964,-0.45064 0.0946,-0.9374 0.54352,-1.08876c0.45064,-0.14792 0.93568,0.09116 1.08704,0.54008c0.02236,0.06192 1.69592,4.64744 9.30176,7.86212l3.0358,-3.0358c0.3354,-0.3354 0.88064,-0.3354 1.21604,0c0.3354,0.3354 0.3354,0.88064 0,1.21604l-3.44,3.44c-0.1634,0.16684 -0.38356,0.25456 -0.60716,0.25456z" fill="#1f212b"></path><path d="M107.5,36.98c-0.86,-2.15 -6.02,-10.32 -22.36,-10.32c-9.5116,0 -30.96,4.3 -30.96,32.68c0,3.4228 0.5676,6.278 1.3416,8.5656c0.3956,1.2212 0.86,2.2876 1.3072,3.182c0,0 0,0.0172 0.0172,0.0172c1.2556,2.4768 2.494,3.7152 2.494,3.7152c0,0 0,-1.9092 0.774,-4.7128c0.2752,-1.118 0.688,-2.3736 1.29,-3.7152c0.7224,-1.6856 1.7372,-5.2288 3.096,-7.052c12.9,0 24.08,-8.6 24.08,-8.6v5.16c0,0 14.6716,-3.9044 15.48,-10.32c0,4.1624 5.6072,10.5608 7.7572,21.0012v0.0172c0.2408,1.1696 0.4472,2.3564 0.5848,3.6292v0.0172c0.172,1.4448 0.258,2.9756 0.258,4.5752c0,0 1.4104,-1.0664 2.9584,-3.5088c0,0 0,-0.0172 0.0172,-0.0172c0.5332,-0.8428 1.0836,-1.8404 1.5996,-3.0444c1.2728,-2.9584 2.3048,-7.0004 2.3048,-12.3496c0,-8.6 -5.2288,-16.0304 -12.04,-18.92z" fill="#63646c"></path><path d="M59.34,75.68c-0.2236,0 -0.44376,-0.08772 -0.60888,-0.25112c-0.22016,-0.22188 -5.41112,-5.53324 -5.41112,-16.08888c0,-31.92148 26.50692,-33.53828 31.82,-33.53828c16.95576,0 22.09684,8.65504 23.00672,10.52124c7.3444,3.2766 12.25328,11.09916 12.25328,19.57704c0,14.02832 -6.92816,19.38612 -7.224,19.608c-0.25972,0.19608 -0.60888,0.22704 -0.89956,0.08084c-0.2924,-0.1462 -0.47644,-0.44376 -0.47644,-0.76884c0,-9.6148 -3.40904,-16.56704 -5.8996,-21.64276c-0.86516,-1.76472 -1.6254,-3.31788 -2.11732,-4.71452c-3.62404,5.1858 -14.448,8.127 -14.9812,8.26804c-0.26144,0.07224 -0.53664,0.01376 -0.74648,-0.14792c-0.21156,-0.1634 -0.3354,-0.41624 -0.3354,-0.68284v-3.49504c-3.36948,2.26868 -12.42872,7.64368 -22.7814,7.7916c-4.68356,6.51708 -4.7386,14.5426 -4.7386,14.62344c0,0.34744 -0.20984,0.6622 -0.53148,0.79464c-0.10492,0.04472 -0.21844,0.06536 -0.32852,0.06536zM104.06,44.72c0.0172,0 0.03612,0 0.05332,0.00172c0.45408,0.02924 0.80668,0.4042 0.80668,0.85828c0,1.68904 1.11284,3.96116 2.52496,6.83872c2.38736,4.8676 5.59516,11.40704 6.02688,20.3648c1.91092,-2.26524 5.20816,-7.53016 5.20816,-16.88352c0,-7.91716 -4.6268,-15.20136 -11.5154,-18.1288c-0.21156,-0.08944 -0.3784,-0.25972 -0.46268,-0.47128c-0.15996,-0.39904 -4.11252,-9.7782 -21.56192,-9.7782c-5.02584,0 -30.1,1.53424 -30.1,31.81828c0,6.51192 2.14484,10.91512 3.59996,13.15112c0.35604,-3.10632 1.49984,-8.77028 5.17204,-13.66712c0.1634,-0.21672 0.41796,-0.344 0.688,-0.344c12.4442,0 23.44704,-8.33856 23.5554,-8.42112c0.25972,-0.1978 0.61404,-0.23392 0.903,-0.08944c0.29584,0.14448 0.4816,0.44376 0.4816,0.77056v4.01792c4.46684,-1.36052 13.21648,-4.89512 13.76688,-9.28456c0.05332,-0.43172 0.4214,-0.75336 0.85312,-0.75336z" fill="#1f212b"></path><path d="M86,94.6c-3.40044,0 -4.92436,-1.97972 -4.988,-2.064c-0.28552,-0.38012 -0.20812,-0.91848 0.172,-1.204c0.3784,-0.28208 0.91332,-0.2064 1.19884,0.16684c0.05676,0.0688 1.13176,1.38116 3.61716,1.38116c2.50088,0 3.57416,-1.32612 3.61888,-1.3846c0.29068,-0.3698 0.82904,-0.44204 1.20228,-0.1548c0.37324,0.28724 0.45064,0.81872 0.16684,1.19368c-0.06364,0.086 -1.58756,2.06572 -4.988,2.06572z" fill="#1f212b"></path><path d="M86,103.2c-8.07712,0 -13.28528,-3.8356 -13.502,-3.999c-0.28552,-0.21328 -0.34228,-0.61576 -0.129,-0.90128c0.21328,-0.2838 0.61576,-0.344 0.903,-0.13072c0.04988,0.03612 5.0998,3.311 12.728,3.311c7.6282,0 12.67812,-3.27316 12.728,-3.311c0.28724,-0.21328 0.68972,-0.15308 0.903,0.13072c0.21328,0.28552 0.1548,0.688 -0.129,0.90128c-0.21672,0.1634 -5.42488,3.999 -13.502,3.999z" fill="#1f212b"></path><path d="M73.96,68.8c-1.37428,0 -2.54904,1.01308 -3.10116,2.4682c0.31132,-0.44204 0.7998,-0.7482 1.38116,-0.7482c0.94944,0 1.72,0.77056 1.72,1.72c0,0.94944 -0.77056,1.72 -1.72,1.72c-0.86344,0 -1.54628,-0.64672 -1.67012,-1.47404c-0.02408,0.20124 -0.04988,0.40248 -0.04988,0.61404c0,2.37532 1.5394,4.3 3.44,4.3c1.9006,0 3.44,-1.92468 3.44,-4.3c0,-2.37532 -1.5394,-4.3 -3.44,-4.3z" fill="#1f212b"></path><path d="M98.04,68.8c-1.37428,0 -2.54904,1.01308 -3.10116,2.4682c0.31132,-0.44204 0.7998,-0.7482 1.38116,-0.7482c0.94944,0 1.72,0.77056 1.72,1.72c0,0.94944 -0.77056,1.72 -1.72,1.72c-0.86344,0 -1.54628,-0.64672 -1.67012,-1.47404c-0.02408,0.20124 -0.04988,0.40248 -0.04988,0.61404c0,2.37532 1.5394,4.3 3.44,4.3c1.9006,0 3.44,-1.92468 3.44,-4.3c0,-2.37532 -1.5394,-4.3 -3.44,-4.3z" fill="#1f212b"></path><path d="M103.74008,64.93172l1.17992,-2.2532c-2.19644,-0.51256 -4.5408,-0.76196 -6.88,-0.75852c-2.9756,0.00516 -5.94432,0.42484 -8.6,1.24356l1.4878,2.19644c2.18096,-0.71724 4.644,-1.06984 7.1122,-1.075c1.94016,-0.00516 3.88548,0.19952 5.70008,0.64672z" fill="#1f212b"></path><path d="M73.96,64.285c2.4682,0.00516 4.93124,0.35776 7.1122,1.075l1.4878,-2.19644c-2.65568,-0.81872 -5.6244,-1.23668 -8.6,-1.24356c-2.3392,-0.00516 -4.68356,0.24596 -6.88,0.75852l1.17992,2.2532c1.8146,-0.4472 3.75992,-0.65188 5.70008,-0.64672z" fill="#1f212b"></path></g></g></svg>